<?xml version="1.0" standalone="no"?>
<!DOCTYPE svg PUBLIC "-//W3C//DTD SVG 20010904//EN"
 "http://www.w3.org/TR/2001/REC-SVG-20010904/DTD/svg10.dtd">
<svg version="1.0" xmlns="http://www.w3.org/2000/svg"
 width="700.000000pt" height="700.000000pt" viewBox="0 0 700.000000 700.000000"
 preserveAspectRatio="xMidYMid meet">
<metadata>
Created by potrace 1.11, written by Peter Selinger 2001-2013
</metadata>
<g transform="translate(0.000000,700.000000) scale(0.100000,-0.100000)"
fill="#000000" stroke="none">
<path d="M1045 6993 c-283 -36 -525 -153 -711 -345 -161 -164 -261 -354 -311
-588 -17 -81 -18 -204 -18 -2560 0 -2356 1 -2479 18 -2560 50 -234 150 -424
311 -588 162 -168 365 -277 606 -329 81 -17 204 -18 2560 -18 2356 0 2479 1
2560 18 241 52 444 161 606 329 161 164 261 354 311 588 17 81 18 204 18 2560
0 2356 -1 2479 -18 2560 -52 241 -161 444 -329 606 -160 157 -342 254 -578
310 -71 17 -206 18 -2535 20 -1353 1 -2473 -1 -2490 -3z m1957 -1464 c191 -40
351 -192 401 -384 9 -33 169 -755 357 -1605 188 -850 345 -1548 349 -1552 3
-3 172 366 374 821 397 893 390 880 487 925 44 20 59 21 495 21 357 0 458 -3
489 -14 51 -18 124 -85 147 -136 22 -48 25 -151 5 -199 -19 -46 -72 -104 -120
-129 -39 -21 -55 -22 -389 -27 l-349 -5 -338 -757 c-185 -417 -350 -776 -365
-798 -42 -61 -134 -141 -195 -172 -306 -153 -667 9 -753 337 -8 33 -169 755
-357 1605 -188 850 -345 1548 -349 1552 -3 4 -152 -322 -330 -725 -407 -919
-420 -946 -465 -981 -75 -57 -67 -56 -563 -56 l-458 0 -50 24 c-55 25 -110 81
-131 132 -20 48 -17 151 5 199 23 50 84 108 136 132 35 16 79 18 380 21 l340
4 289 651 c385 867 401 899 467 964 67 66 113 97 181 124 98 39 210 49 310 28z"/>
</g>
</svg>
